<svg xmlns="http://www.w3.org/2000/svg" viewBox="0 0 24 24" fill="#2319dc">
  <path d="M5.927 12.497c2.063-.443 1.782-2.909 1.72-3.448-.101-.83-.506-2.348-2.089-2.166-1.583.183-1.903 2.098-1.903 3.292 0 1.191.56 2.749 2.272 2.322m4.63-3.854c1.354-.26 1.318-1.947 1.244-2.685-.074-.738-.408-2.161-1.671-2.161S8.6 4.508 8.545 5.538c-.054 1.03-.15 2.798 2.012 3.105M12 24c-.001 0 0 0 0 0a9.65 9.65 0 01-4.028-.873 9.588 9.588 0 01-3.294-2.395 9.64 9.64 0 01-2.195-3.408A9.699 9.699 0 012 14.045c0-2.662.952-4.929 2.828-6.735C6.704 5.504 9.023 4.5 12 4.5s5.296 1.004 7.172 2.81c1.877 1.806 2.828 4.073 2.828 6.735 0 1.175-.162 2.293-.483 3.325a9.64 9.64 0 01-2.195 3.362 9.588 9.588 0 01-3.294 2.395c-1.278.555-2.64.873-4.027.873zm5.495-7.758c-.685-.648-1.887-1.203-2.312-1.418-.424-.215-1.588-.926-1.588-.926s-.192-.144-.461-.144c-.268 0-.461.144-.461.144s-.911.544-1.684.974c-.775.43-2.101.986-2.442 1.156-.342.17-1.257.71-1.257 1.675 0 .964.685 1.783 1.37 2.125.684.341 1.882.682 3.251.682 1.37 0 2.91-.341 3.593-.682.684-.341 1.711-.961 1.991-1.603.28-.641.171-1.503 0-1.983"/>
</svg>
